<svg width="52" height="42" viewBox="0 0 52 42" fill="none" xmlns="http://www.w3.org/2000/svg">
<path d="M32.5667 37.8376V37.7475V31.4251V30.6264V30.4202L32.4214 30.274L31.861 29.71C31.861 29.71 31.861 29.71 31.861 29.71C29.8707 27.7035 27.7767 26.4082 25.9266 25.5694C27.3268 24.9515 28.5801 24.5867 29.543 24.3686C30.1362 24.2342 30.6193 24.1554 30.959 24.1073C31.11 24.086 31.2325 24.0707 31.327 24.0589C31.3392 24.0574 31.3508 24.0559 31.362 24.0545C31.4095 24.0486 31.4542 24.0429 31.489 24.0377C31.4982 24.0363 31.5088 24.0346 31.5202 24.0327H39.3651C39.3655 24.0328 39.3659 24.0328 39.3663 24.0329C39.393 24.0375 39.4235 24.0417 39.4523 24.0455C39.4812 24.0494 39.5198 24.0542 39.5633 24.0596C39.6023 24.0645 39.6453 24.0699 39.6888 24.0755C39.8841 24.1005 40.1607 24.1386 40.5065 24.1997C41.1984 24.3221 42.1695 24.5374 43.3114 24.9261C45.5553 25.6899 48.4576 27.1226 51.2007 29.8361V29.8388V29.8538V29.8688V29.8838V29.8988V29.9138V29.9288V29.9438V29.9588V29.9738V29.9888V30.0038V30.0188V30.0338V30.0488V30.0638V30.0788V30.0938V30.1088V30.1238V30.1388V30.1538V30.1688V30.1838V30.1988V30.2138V30.2288V30.2438V30.2588V30.2738V30.2888V30.3038V30.3188V30.3338V30.3488V30.3638V30.3788V30.3938V30.4088V30.4238V30.4388V30.4538V30.4688V30.4838V30.4988V30.5139V30.5289V30.5439V30.5589V30.5739V30.5889V30.6039V30.6189V30.6339V30.6489V30.6639V30.6789V30.6939V30.7089V30.7239V30.7389V30.7539V30.7689V30.7839V30.7989V30.8139V30.8289V30.8439V30.8589V30.8739V30.8889V30.9039V30.9189V30.9339V30.9489V30.9639V30.9789V30.9939V31.0089V31.0239V31.0389V31.0539V31.0689V31.0839V31.0989V31.1139V31.1289V31.1439V31.1589V31.1739V31.1889V31.2039V31.2189V31.2339V31.2489V31.2639V31.2789V31.294V31.309V31.324V31.339V31.354V31.369V31.384V31.399V31.414V31.429V31.444V31.459V31.474V31.489V31.504V31.519V31.534V31.549V31.564V31.579V31.594V31.609V31.624V31.639V31.654V31.669V31.684V31.699V31.714V31.729V31.744V31.759V31.774V31.789V31.804V31.819V31.834V31.849V31.864V31.879V31.894V31.909V31.924V31.939V31.954V31.969V31.984V31.999V32.014V32.0291V32.0441V32.0591V32.0741V32.0891V32.1041V32.1191V32.1341V32.1491V32.1641V32.1791V32.1941V32.2091V32.2241V32.2391V32.2541V32.2691V32.2841V32.2991V32.3141V32.3291V32.3441V32.3591V32.3741V32.3891V32.4041V32.4191V32.4341V32.4491V32.4641V32.4791V32.4941V32.5091V32.5241V32.5391V32.5541V32.5691V32.5841V32.5991V32.6141V32.6291V32.6441V32.6591V32.6742V32.6892V32.7042V32.7192V32.7342V32.7492V32.7642V32.7792V32.7942V32.8092V32.8242V32.8392V32.8542V32.8692V32.8842V32.8992V32.9142V32.9292V32.9442V32.9592V32.9742V32.9892V33.0042V33.0192V33.0342V33.0492V33.0642V33.0792V33.0942V33.1092V33.1242V33.1392V33.1542V33.1692V33.1842V33.1992V33.2142V33.2292V33.2443V33.2593V33.2743V33.2893V33.3043V33.3193V33.3343V33.3493V33.3643V33.3793V33.3943V33.4093V33.4243V33.4393V33.4543V33.4693V33.4843V33.4993V33.5143V33.5293V33.5443V33.5593V33.5743V33.5893V33.6043V33.6193V33.6343V33.6493V33.6643V33.6793V33.6943V33.7093V33.7243V33.7393V33.7543V33.7694V33.7844V33.7994V33.8144V33.8294V33.8444V33.8594V33.8744V33.8894V33.9044V33.9194V33.9344V33.9494V33.9644V33.9794V33.9944V34.0094V34.0244V34.0394V34.0544V34.0694V34.0844V34.0994V34.1144V34.1294V34.1444V34.1594V34.1744V34.1894V34.2044V34.2194V34.2345V34.2495V34.2645V34.2795V34.2945V34.3095V34.3245V34.3395V34.3545V34.3695V34.3845V34.3995V34.4145V34.4295V34.4445V34.4595V34.4745V34.4895V34.5045V34.5195V34.5345V34.5495V34.5645V34.5795V34.5945V34.6095V34.6245V34.6395V34.6545V34.6696V34.6846V34.6996V34.7146V34.7296V34.7446V34.7596V34.7746V34.7896V34.8046V34.8196V34.8346V34.8496V34.8646V34.8796V34.8946V34.9096V34.9246V34.9396V34.9546V34.9696V34.9846V34.9996V35.0146V35.0296V35.0446V35.0597V35.0747V35.0897V35.1047V35.1197V35.1347V35.1497V35.1647V35.1797V35.1947V35.2097V35.2247V35.2397V35.2547V35.2697V35.2847V35.2997V35.3147V35.3297V35.3447V35.3597V35.3747V35.3897V35.4047V35.4197V35.4348V35.4498V35.4648V35.4798V35.4948V35.5098V35.5248V35.5398V35.5548V35.5698V35.5848V35.5998V35.6148V35.6298V35.6448V35.6598V35.6748V35.6898V35.7048V35.7198V35.7348V35.7498V35.7649V35.7799V35.7949V35.8099V35.8249V35.8399V35.8549V35.8699V35.8849V35.8999V35.9149V35.9299V35.9449V35.9599V35.9749V35.9899V36.0049V36.0199V36.0349V36.0499V36.0649V36.0799V36.095V36.11V36.125V36.14V36.155V36.17V36.185V36.2V36.215V36.23V36.245V36.26V36.275V36.29V36.305V36.32V36.335V36.35V36.365V36.38V36.3951V36.4101V36.4251V36.4401V36.4551V36.4701V36.4851V36.5001V36.5151V36.5301V36.5451V36.5601V36.5751V36.5901V36.6051V36.6201V36.6351V36.6501V36.6651V36.6802V36.6952V36.7102V36.7252V36.7402V36.7552V36.7702V36.7852V36.8002V36.8152V36.8302V36.8452V36.8602V36.8752V36.8902V36.9052V36.9202V36.9268C44.1535 38.8036 38.4888 39.5526 32.5733 39.1911V38.3376V37.8376H32.5667ZM35.4431 1.29688C39.5988 1.29688 43.157 5.62527 43.157 11.2289C43.157 16.8325 39.5988 21.1609 35.4431 21.1609C31.2874 21.1609 27.7292 16.8325 27.7292 11.2289C27.7292 5.62527 31.2874 1.29688 35.4431 1.29688ZM15.2148 5.04636C19.0791 5.04636 22.4018 9.07526 22.4018 14.3091C22.4018 19.5421 19.0792 23.5711 15.2148 23.5711C11.3504 23.5711 8.02849 19.5422 8.02849 14.3091C8.02849 9.07519 11.3504 5.04636 15.2148 5.04636ZM11.5464 26.3231H18.8831C18.9083 26.3273 18.9368 26.3313 18.9632 26.3347C18.9896 26.3382 19.0253 26.3427 19.0655 26.3477C19.1026 26.3523 19.1435 26.3574 19.1845 26.3627C19.3668 26.3861 19.6251 26.4216 19.9481 26.4787C20.5942 26.593 21.5012 26.7941 22.568 27.1572C24.6617 27.8699 27.3692 29.2059 29.9295 31.7346V31.7378V31.7518V31.7658V31.7799V31.7939V31.808V31.822V31.836V31.8501V31.8641V31.8782V31.8922V31.9062V31.9203V31.9343V31.9484V31.9624V31.9764V31.9905V32.0045V32.0185V32.0326V32.0466V32.0607V32.0747V32.0887V32.1028V32.1168V32.1309V32.1449V32.1589V32.173V32.187V32.2011V32.2151V32.2291V32.2432V32.2572V32.2713V32.2853V32.2993V32.3134V32.3274V32.3415V32.3555V32.3695V32.3836V32.3976V32.4117V32.4257V32.4397V32.4538V32.4678V32.4819V32.4959V32.5099V32.524V32.538V32.5521V32.5661V32.5801V32.5942V32.6082V32.6223V32.6363V32.6503V32.6644V32.6784V32.6925V32.7065V32.7205V32.7346V32.7486V32.7627V32.7767V32.7907V32.8048V32.8188V32.8329V32.8469V32.8609V32.875V32.889V32.9031V32.9171V32.9311V32.9452V32.9592V32.9733V32.9873V33.0013V33.0154V33.0294V33.0435V33.0575V33.0715V33.0856V33.0996V33.1137V33.1277V33.1417V33.1558V33.1698V33.1839V33.1979V33.2119V33.226V33.24V33.2541V33.2681V33.2821V33.2962V33.3102V33.3243V33.3383V33.3523V33.3664V33.3804V33.3945V33.4085V33.4225V33.4366V33.4506V33.4647V33.4787V33.4927V33.5068V33.5208V33.5349V33.5489V33.5629V33.577V33.591V33.6051V33.6191V33.6331V33.6472V33.6612V33.6753V33.6893V33.7033V33.7174V33.7314V33.7455V33.7595V33.7735V33.7876V33.8016V33.8157V33.8297V33.8437V33.8578V33.8718V33.8859V33.8999V33.9139V33.928V33.942V33.9561V33.9701V33.9841V33.9982V34.0122V34.0263V34.0403V34.0544V34.0684V34.0824V34.0965V34.1105V34.1245V34.1386V34.1526V34.1667V34.1807V34.1948V34.2088V34.2228V34.2369V34.2509V34.265V34.279V34.293V34.3071V34.3211V34.3352V34.3492V34.3632V34.3773V34.3913V34.4054V34.4194V34.4334V34.4475V34.4615V34.4756V34.4896V34.5036V34.5177V34.5317V34.5458V34.5598V34.5738V34.5879V34.6019V34.616V34.63V34.6441V34.6581V34.6721V34.6862V34.7002V34.7143V34.7283V34.7423V34.7564V34.7704V34.7845V34.7985V34.8125V34.8266V34.8406V34.8547V34.8687V34.8827V34.8968V34.9108V34.9249V34.9389V34.9529V34.967V34.981V34.9951V35.0091V35.0231V35.0372V35.0512V35.0653V35.0793V35.0934V35.1074V35.1214V35.1355V35.1495V35.1636V35.1776V35.1916V35.2057V35.2197V35.2338V35.2478V35.2618V35.2759V35.2899V35.304V35.318V35.332V35.3461V35.3601V35.3742V35.3882V35.4023V35.4163V35.4303V35.4444V35.4584V35.4725V35.4865V35.5005V35.5146V35.5286V35.5427V35.5567V35.5707V35.5848V35.5988V35.6129V35.6269V35.641V35.655V35.669V35.6831V35.6971V35.7112V35.7252V35.7392V35.7533V35.7673V35.7814V35.7954V35.8094V35.8235V35.8375V35.8516V35.8656V35.8797V35.8937V35.9077V35.9218V35.9358V35.9499V35.9639V35.9779V35.992V36.006V36.0201V36.0341V36.0482V36.0622V36.0762V36.0903V36.1043V36.1184V36.1324V36.1464V36.1605V36.1745V36.1886V36.2026V36.2167V36.2307V36.2447V36.2588V36.2728V36.2869V36.3009V36.3149V36.329V36.343V36.3571V36.3711V36.3852V36.3992V36.4132V36.4273V36.4413V36.4554V36.4694V36.4834V36.4975V36.5115V36.5256V36.5396V36.5537V36.5677V36.5817V36.5958V36.6098V36.6239V36.6379V36.6519V36.666V36.68V36.6941V36.7081V36.7222V36.7362V36.7502V36.7643V36.7783V36.7924V36.8064V36.8204V36.8345V36.8485V36.8626V36.8766V36.8907V36.9047V36.9187V36.9328V36.9468V36.9609V36.9749V36.989V37.003V37.017V37.0311V37.0451V37.0592V37.0732V37.0873V37.1013V37.1153V37.1294V37.1434V37.1575V37.1715V37.1856V37.1996V37.2136V37.2277V37.2417V37.2558V37.2698V37.2838V37.2979V37.3119V37.326V37.34V37.3541V37.3681V37.3821V37.3962V37.4102V37.4243V37.4383V37.4524V37.4664V37.4804V37.4945V37.5085V37.5226V37.5366V37.5507V37.5647V37.5787V37.5928V37.6068V37.6209V37.6349V37.649V37.663V37.677V37.6911V37.7051V37.7192V37.7332V37.7473V37.7613V37.7753V37.7894V37.8034V37.8175V37.8315V37.8456V37.8596V37.8736V37.8877V37.9017V37.9158V37.9298V37.9439V37.9579V37.972V37.986V38V38.0141V38.0281V38.0422V38.0562V38.0703V38.0843V38.0983V38.1124V38.1264V38.1405V38.1545V38.1686V38.1826V38.1966V38.2107V38.2247V38.2388V38.2528V38.2669V38.2809V38.295V38.309V38.323V38.3326C18.9308 41.2592 11.4995 41.2592 0.5 38.3326V38.323V38.309V38.295V38.2809V38.2669V38.2528V38.2388V38.2247V38.2107V38.1966V38.1826V38.1686V38.1545V38.1405V38.1264V38.1124V38.0983V38.0843V38.0703V38.0562V38.0422V38.0281V38.0141V38V37.986V37.972V37.9579V37.9439V37.9298V37.9158V37.9017V37.8877V37.8736V37.8596V37.8456V37.8315V37.8175V37.8034V37.7894V37.7753V37.7613V37.7473V37.7332V37.7192V37.7051V37.6911V37.677V37.663V37.649V37.6349V37.6209V37.6068V37.5928V37.5787V37.5647V37.5507V37.5366V37.5226V37.5085V37.4945V37.4804V37.4664V37.4524V37.4383V37.4243V37.4102V37.3962V37.3821V37.3681V37.3541V37.34V37.326V37.3119V37.2979V37.2838V37.2698V37.2558V37.2417V37.2277V37.2136V37.1996V37.1856V37.1715V37.1575V37.1434V37.1294V37.1153V37.1013V37.0873V37.0732V37.0592V37.0451V37.0311V37.017V37.003V36.989V36.9749V36.9609V36.9468V36.9328V36.9187V36.9047V36.8907V36.8766V36.8626V36.8485V36.8345V36.8204V36.8064V36.7924V36.7783V36.7643V36.7502V36.7362V36.7222V36.7081V36.6941V36.68V36.666V36.6519V36.6379V36.6239V36.6098V36.5958V36.5817V36.5677V36.5537V36.5396V36.5256V36.5115V36.4975V36.4834V36.4694V36.4554V36.4413V36.4273V36.4132V36.3992V36.3852V36.3711V36.3571V36.343V36.329V36.3149V36.3009V36.2869V36.2728V36.2588V36.2447V36.2307V36.2167V36.2026V36.1886V36.1745V36.1605V36.1464V36.1324V36.1184V36.1043V36.0903V36.0762V36.0622V36.0482V36.0341V36.0201V36.006V35.992V35.9779V35.9639V35.9499V35.9358V35.9218V35.9077V35.8937V35.8797V35.8656V35.8516V35.8375V35.8235V35.8094V35.7954V35.7814V35.7673V35.7533V35.7392V35.7252V35.7112V35.6971V35.6831V35.669V35.655V35.641V35.6269V35.6129V35.5988V35.5848V35.5707V35.5567V35.5427V35.5286V35.5146V35.5005V35.4865V35.4725V35.4584V35.4444V35.4303V35.4163V35.4023V35.3882V35.3742V35.3601V35.3461V35.332V35.318V35.304V35.2899V35.2759V35.2618V35.2478V35.2338V35.2197V35.2057V35.1916V35.1776V35.1636V35.1495V35.1355V35.1214V35.1074V35.0934V35.0793V35.0653V35.0512V35.0372V35.0231V35.0091V34.9951V34.981V34.967V34.9529V34.9389V34.9249V34.9108V34.8968V34.8827V34.8687V34.8547V34.8406V34.8266V34.8125V34.7985V34.7845V34.7704V34.7564V34.7423V34.7283V34.7143V34.7002V34.6862V34.6721V34.6581V34.6441V34.63V34.616V34.6019V34.5879V34.5738V34.5598V34.5458V34.5317V34.5177V34.5036V34.4896V34.4756V34.4615V34.4475V34.4334V34.4194V34.4054V34.3913V34.3773V34.3632V34.3492V34.3352V34.3211V34.3071V34.293V34.279V34.265V34.2509V34.2369V34.2228V34.2088V34.1948V34.1807V34.1667V34.1526V34.1386V34.1245V34.1105V34.0965V34.0824V34.0684V34.0544V34.0403V34.0263V34.0122V33.9982V33.9841V33.9701V33.9561V33.942V33.928V33.9139V33.8999V33.8859V33.8718V33.8578V33.8437V33.8297V33.8157V33.8016V33.7876V33.7735V33.7595V33.7455V33.7314V33.7174V33.7033V33.6893V33.6753V33.6612V33.6472V33.6331V33.6191V33.6051V33.591V33.577V33.5629V33.5489V33.5349V33.5208V33.5068V33.4927V33.4787V33.4647V33.4506V33.4366V33.4225V33.4085V33.3945V33.3804V33.3664V33.3523V33.3383V33.3243V33.3102V33.2962V33.2821V33.2681V33.2541V33.24V33.226V33.2119V33.1979V33.1839V33.1698V33.1558V33.1417V33.1277V33.1137V33.0996V33.0856V33.0715V33.0575V33.0435V33.0294V33.0154V33.0013V32.9873V32.9733V32.9592V32.9452V32.9311V32.9171V32.9031V32.889V32.875V32.8609V32.8469V32.8329V32.8188V32.8048V32.7907V32.7767V32.7627V32.7486V32.7346V32.7205V32.7065V32.6925V32.6784V32.6644V32.6503V32.6363V32.6223V32.6082V32.5942V32.5801V32.5661V32.5521V32.538V32.524V32.5099V32.4959V32.4819V32.4678V32.4538V32.4397V32.4257V32.4117V32.3976V32.3836V32.3695V32.3555V32.3415V32.3274V32.3134V32.2993V32.2853V32.2713V32.2572V32.2432V32.2291V32.2151V32.2011V32.187V32.173V32.1589V32.1449V32.1309V32.1168V32.1028V32.0887V32.0747V32.0607V32.0466V32.0326V32.0185V32.0045V31.9905V31.9764V31.9624V31.9484V31.9343V31.9203V31.9062V31.8922V31.8782V31.8641V31.8501V31.836V31.822V31.808V31.7939V31.7799V31.7658V31.7518V31.7378V31.7346C3.06035 29.2059 5.7678 27.8699 7.86152 27.1572C8.9283 26.7941 9.83533 26.593 10.4815 26.4787C10.8044 26.4216 11.0627 26.3861 11.245 26.3627C11.286 26.3574 11.3269 26.3523 11.3641 26.3477C11.4042 26.3427 11.4399 26.3382 11.4663 26.3347C11.4928 26.3313 11.5212 26.3273 11.5464 26.3231Z" stroke="#A3A4A8"/>
</svg>
