<svg width="58" height="49" viewBox="0 0 58 49" fill="none" xmlns="http://www.w3.org/2000/svg">
<path fill-rule="evenodd" clip-rule="evenodd" d="M25.3 12.4C28.7242 12.4 31.5 9.62417 31.5 6.2C31.5 2.77583 28.7242 0 25.3 0C21.8758 0 19.1 2.77583 19.1 6.2C19.1 9.62417 21.8758 12.4 25.3 12.4ZM38.1 25.1V18.1V18H38.0993C38.0541 14.614 35.7174 11.5715 32.4394 10.6198L32.1606 11.5801C35.0503 12.4191 37.1 15.1259 37.1 18.1V25.1H38.1ZM18.7606 10.7198C15.5169 11.6615 13.1895 14.5574 13.1025 18H13.1V18.2H14.1C14.1 15.13 16.1457 12.5203 19.0394 11.6801L18.7606 10.7198ZM56.3 20.4C56.2 17 53.4 14.2 50 14.2C46.5 14.2 43.7 16.9 43.5 20.3V20.4C43.5 24.3 42.1 27 39.3 28.9C38.3 29.6 37 30.2 35.5 30.6L33.6 31.1L33.6395 30.9985C33.6265 30.9995 33.6133 31 33.6 31H17.6C17.3238 31 17.1 30.7761 17.1 30.5C17.1 30.2239 17.3238 30 17.6 30H33.6C33.7444 30 33.8746 30.0613 33.9659 30.1592L34.3 29.3C34.6 28.6 34.7 27.9 34.7 27.2C34.7 23.8 32 21 28.6 21H28.5H2C1.4 21 1 21.5 1 22V24C1 27.7 1.80001 31.1 3.20001 34.2C4.60001 37.1 6.60001 39.7 9.20001 41.8C13.1 45 18.1 47 23.7 47.8L23.7001 47.8C24.7001 47.9 25.7001 48 26.8 48C34.3 48 43 44.9 47.5 40.7C53.2 35.4 56.3 28.3 56.3 20.6V20.5V20.4ZM42.7 20.3C42.8 16.4 46 13.2 50 13.2C53.9 13.2 57.2 16.4 57.2 20.6V20.7C57.2 28.6 53.9 36.1 48.1 41.5C43.1 46.1 34.1 49 26.7 49C25.6 49 24.5 48.9 23.5 48.8C17.7 48 12.5 45.9 8.5 42.6C5.8 40.4 3.70002 37.7 2.30002 34.6C0.800018 31.3 0 27.8 0 23.9V22C0 20.9 0.9 20 2 20H28.5H28.6C32.5 20.1 35.7 23.3 35.7 27.2C35.7 28 35.6 28.8 35.3 29.6C36.7 29.2 37.9 28.6 38.9 28C41.5 26.4 42.7 23.9 42.7 20.4V20.3Z" fill="white"/>
</svg>
