<svg width="60" height="60" viewBox="0 0 60 60" fill="none" xmlns="http://www.w3.org/2000/svg">
<path fill-rule="evenodd" clip-rule="evenodd" d="M16 3.5C16 2.67614 16.6761 2 17.5 2H53.5C54.3239 2 55 2.67614 55 3.5V44.5C55 45.3239 54.3239 46 53.5 46H51V47H53.5C54.8761 47 56 45.8761 56 44.5V3.5C56 2.12386 54.8761 1 53.5 1H17.5C16.1239 1 15 2.12386 15 3.5V6H16V3.5ZM11.5 8C10.6761 8 10 8.67614 10 9.5V12H9V9.5C9 8.12386 10.1239 7 11.5 7H47.5C48.8761 7 50 8.12386 50 9.5V50.5C50 51.8761 48.8761 53 47.5 53H45V52H47.5C48.3239 52 49 51.3239 49 50.5V9.5C49 8.67614 48.3239 8 47.5 8H11.5ZM41 15C41.6 15 42 15.4 42 16V57C42 57.6 41.6 58 41 58H5C4.4 58 4 57.6 4 57V16C4 15.4 4.4 15 5 15H41ZM41 14H5C3.9 14 3 14.9 3 16V57C3 58.1 3.9 59 5 59H41C42.1 59 43 58.1 43 57V16C43 14.9 42.1 14 41 14ZM34 27H12V23H34V27ZM12 33H34V32H12V33ZM34 38H12V37H34V38ZM12 43H34V42H12V43ZM19 51H12V50H19V51ZM26 51H34V50H26V51Z" fill="white"/>
</svg>
