<svg width="60" height="60" viewBox="0 0 60 60" fill="none" xmlns="http://www.w3.org/2000/svg">
<path fill-rule="evenodd" clip-rule="evenodd" d="M28.9993 16.374C21.4599 16.374 15.373 22.4609 15.373 30.0002C15.373 37.5396 21.4599 43.6265 28.9993 43.6265C36.5386 43.6265 42.6255 37.5396 42.6255 30.0002C42.6255 22.4609 36.5386 16.374 28.9993 16.374ZM16.373 30.0002C16.373 23.0132 22.0122 17.374 28.9993 17.374C35.9863 17.374 41.6255 23.0132 41.6255 30.0002C41.6255 36.9873 35.9863 42.6265 28.9993 42.6265C22.0122 42.6265 16.373 36.9873 16.373 30.0002ZM24.1352 29.3448C21.644 30.0634 19.9672 32.3173 19.9672 34.9007V37.876H20.9672V34.9007C20.9672 32.7587 22.3532 30.8996 24.4124 30.3056L24.1352 29.3448ZM38.0313 34.9007C38.0313 32.3128 36.3068 30.0635 33.8658 29.3455L33.5836 30.3049C35.6055 30.8996 37.0313 32.7632 37.0313 34.9007V37.7885H38.0313V34.9007ZM33.506 26.2374C33.506 28.7264 31.4883 30.7441 28.9993 30.7441C26.5104 30.7441 24.4927 28.7264 24.4927 26.2374C24.4927 23.7485 26.5104 21.7308 28.9993 21.7308C31.4883 21.7308 33.506 23.7485 33.506 26.2374Z" fill="white"/>
<mask id="path-3-inside-1" fill="white">
<path fill-rule="evenodd" clip-rule="evenodd" d="M31.364 0H28.364V5.36401H23.5L29.864 11.728L36.2279 5.36401H31.364V0Z"/>
</mask>
<path d="M28.364 0V-1H27.364V0H28.364ZM31.364 0H32.364V-1H31.364V0ZM28.364 5.36401V6.36401H29.364V5.36401H28.364ZM23.5 5.36401V4.36401H21.0858L22.7929 6.07112L23.5 5.36401ZM29.864 11.728L29.1569 12.4351L29.864 13.1422L30.5711 12.4351L29.864 11.728ZM36.2279 5.36401L36.935 6.07112L38.6421 4.36401H36.2279V5.36401ZM31.364 5.36401H30.364V6.36401H31.364V5.36401ZM28.364 1H31.364V-1H28.364V1ZM29.364 5.36401V0H27.364V5.36401H29.364ZM28.364 4.36401H23.5V6.36401H28.364V4.36401ZM22.7929 6.07112L29.1569 12.4351L30.5711 11.0209L24.2071 4.65691L22.7929 6.07112ZM30.5711 12.4351L36.935 6.07112L35.5208 4.65691L29.1569 11.0209L30.5711 12.4351ZM36.2279 4.36401H31.364V6.36401H36.2279V4.36401ZM30.364 0V5.36401H32.364V0H30.364Z" fill="white" mask="url(#path-3-inside-1)"/>
<mask id="path-5-inside-2" fill="white">
<path fill-rule="evenodd" clip-rule="evenodd" d="M28.3645 59.728L31.3645 59.728L31.3645 54.364L36.2285 54.364L29.8646 48.0001L23.5006 54.364L28.3645 54.364L28.3645 59.728Z"/>
</mask>
<path d="M31.3645 59.728L31.3645 60.728L32.3645 60.728L32.3645 59.728L31.3645 59.728ZM28.3645 59.728L27.3645 59.728L27.3645 60.728L28.3645 60.728L28.3645 59.728ZM31.3645 54.364L31.3645 53.364L30.3645 53.364L30.3645 54.364L31.3645 54.364ZM36.2285 54.364L36.2285 55.364L38.6427 55.364L36.9356 53.6569L36.2285 54.364ZM29.8646 48.0001L30.5717 47.2929L29.8646 46.5858L29.1574 47.2929L29.8646 48.0001ZM23.5006 54.364L22.7935 53.6569L21.0864 55.364L23.5006 55.364L23.5006 54.364ZM28.3645 54.364L29.3645 54.364L29.3645 53.364L28.3645 53.364L28.3645 54.364ZM31.3645 58.728L28.3645 58.728L28.3645 60.728L31.3645 60.728L31.3645 58.728ZM30.3645 54.364L30.3645 59.728L32.3645 59.728L32.3645 54.364L30.3645 54.364ZM31.3645 55.364L36.2285 55.364L36.2285 53.364L31.3645 53.364L31.3645 55.364ZM36.9356 53.6569L30.5717 47.2929L29.1574 48.7072L35.5214 55.0711L36.9356 53.6569ZM29.1574 47.2929L22.7935 53.6569L24.2077 55.0711L30.5717 48.7072L29.1574 47.2929ZM23.5006 55.364L28.3645 55.364L28.3645 53.364L23.5006 53.364L23.5006 55.364ZM29.3645 59.728L29.3645 54.364L27.3645 54.364L27.3645 59.728L29.3645 59.728Z" fill="white" mask="url(#path-5-inside-2)"/>
<mask id="path-7-inside-3" fill="white">
<path fill-rule="evenodd" clip-rule="evenodd" d="M-3.43743e-07 28.364L-2.12613e-07 31.364L5.36401 31.364L5.36401 36.228L11.728 29.8641L5.36401 23.5001L5.36401 28.364L-3.43743e-07 28.364Z"/>
</mask>
<path d="M-2.12613e-07 31.364L-1 31.364L-1 32.364L-1.68901e-07 32.364L-2.12613e-07 31.364ZM-3.43743e-07 28.364L-3.87455e-07 27.364L-1 27.364L-1 28.364L-3.43743e-07 28.364ZM5.36401 31.364L6.36401 31.364L6.36401 30.364L5.36401 30.364L5.36401 31.364ZM5.36401 36.228L4.36401 36.228L4.36401 38.6422L6.07112 36.9351L5.36401 36.228ZM11.728 29.8641L12.4351 30.5712L13.1422 29.8641L12.4351 29.157L11.728 29.8641ZM5.36401 23.5001L6.07112 22.793L4.36401 21.0859L4.36401 23.5001L5.36401 23.5001ZM5.36401 28.364L5.36401 29.364L6.36401 29.364L6.36401 28.364L5.36401 28.364ZM1 31.364L1 28.364L-1 28.364L-1 31.364L1 31.364ZM5.36401 30.364L-2.56324e-07 30.364L-1.68901e-07 32.364L5.36401 32.364L5.36401 30.364ZM4.36401 31.364L4.36401 36.228L6.36401 36.228L6.36401 31.364L4.36401 31.364ZM6.07112 36.9351L12.4351 30.5712L11.0209 29.157L4.65691 35.5209L6.07112 36.9351ZM12.4351 29.157L6.07112 22.793L4.65691 24.2072L11.0209 30.5712L12.4351 29.157ZM4.36401 23.5001L4.36401 28.364L6.36401 28.364L6.36401 23.5001L4.36401 23.5001ZM-3.00032e-07 29.364L5.36401 29.364L5.36401 27.364L-3.87455e-07 27.364L-3.00032e-07 29.364Z" fill="white" mask="url(#path-7-inside-3)"/>
<mask id="path-9-inside-4" fill="white">
<path fill-rule="evenodd" clip-rule="evenodd" d="M59.7285 31.364L59.7285 28.364L54.3645 28.364L54.3645 23.5L48.0005 29.864L54.3645 36.2279L54.3645 31.364L59.7285 31.364Z"/>
</mask>
<path d="M59.7285 28.364L60.7285 28.364L60.7285 27.364L59.7285 27.364L59.7285 28.364ZM59.7285 31.364L59.7285 32.364L60.7285 32.364L60.7285 31.364L59.7285 31.364ZM54.3645 28.364L53.3645 28.364L53.3645 29.364L54.3645 29.364L54.3645 28.364ZM54.3645 23.5L55.3645 23.5L55.3645 21.0858L53.6574 22.7929L54.3645 23.5ZM48.0005 29.864L47.2934 29.1569L46.5863 29.864L47.2934 30.5711L48.0005 29.864ZM54.3645 36.2279L53.6574 36.935L55.3645 38.6421L55.3645 36.2279L54.3645 36.2279ZM54.3645 31.364L54.3645 30.364L53.3645 30.364L53.3645 31.364L54.3645 31.364ZM58.7285 28.364L58.7285 31.364L60.7285 31.364L60.7285 28.364L58.7285 28.364ZM54.3645 29.364L59.7285 29.364L59.7285 27.364L54.3645 27.364L54.3645 29.364ZM55.3645 28.364L55.3645 23.5L53.3645 23.5L53.3645 28.364L55.3645 28.364ZM53.6574 22.7929L47.2934 29.1569L48.7076 30.5711L55.0716 24.2071L53.6574 22.7929ZM47.2934 30.5711L53.6574 36.935L55.0716 35.5208L48.7076 29.1569L47.2934 30.5711ZM55.3645 36.2279L55.3645 31.364L53.3645 31.364L53.3645 36.2279L55.3645 36.2279ZM59.7285 30.364L54.3645 30.364L54.3645 32.364L59.7285 32.364L59.7285 30.364Z" fill="white" mask="url(#path-9-inside-4)"/>
<mask id="path-11-inside-5" fill="white">
<path fill-rule="evenodd" clip-rule="evenodd" d="M52.0412 9.80777L49.9198 7.68645L46.1269 11.4794L42.6875 8.04L42.6875 17.04L51.6875 17.04L48.2482 13.6007L52.0412 9.80777Z"/>
</mask>
<path d="M49.9198 7.68645L50.627 6.97934L49.9198 6.27223L49.2127 6.97934L49.9198 7.68645ZM52.0412 9.80777L52.7483 10.5149L53.4554 9.80777L52.7483 9.10066L52.0412 9.80777ZM46.1269 11.4794L45.4198 12.1865L46.1269 12.8936L46.834 12.1865L46.1269 11.4794ZM42.6875 8.04L43.3946 7.33289L41.6875 5.62579V8.04L42.6875 8.04ZM42.6875 17.04H41.6875V18.04H42.6875V17.04ZM51.6875 17.04V18.04H54.1018L52.3946 16.3329L51.6875 17.04ZM48.2482 13.6007L47.5411 12.8936L46.834 13.6007L47.5411 14.3078L48.2482 13.6007ZM49.2127 8.39355L51.3341 10.5149L52.7483 9.10066L50.627 6.97934L49.2127 8.39355ZM46.834 12.1865L50.627 8.39355L49.2127 6.97934L45.4198 10.7723L46.834 12.1865ZM46.834 10.7723L43.3946 7.33289L41.9804 8.74711L45.4198 12.1865L46.834 10.7723ZM41.6875 8.04L41.6875 17.04H43.6875L43.6875 8.04L41.6875 8.04ZM42.6875 18.04L51.6875 18.04V16.04L42.6875 16.04V18.04ZM52.3946 16.3329L48.9553 12.8936L47.5411 14.3078L50.9804 17.7471L52.3946 16.3329ZM51.3341 9.10066L47.5411 12.8936L48.9553 14.3078L52.7483 10.5149L51.3341 9.10066Z" fill="white" mask="url(#path-11-inside-5)"/>
<mask id="path-13-inside-6" fill="white">
<path fill-rule="evenodd" clip-rule="evenodd" d="M7.6854 49.9203L9.80672 52.0416L13.5996 48.2486L17.039 51.688L17.039 42.688L8.03902 42.688L11.4783 46.1273L7.6854 49.9203Z"/>
</mask>
<path d="M9.80672 52.0416L9.09961 52.7487L9.80672 53.4558L10.5138 52.7487L9.80672 52.0416ZM7.6854 49.9203L6.97829 49.2132L6.27118 49.9203L6.97829 50.6274L7.6854 49.9203ZM13.5996 48.2486L14.3068 47.5415L13.5996 46.8344L12.8925 47.5415L13.5996 48.2486ZM17.039 51.688L16.3319 52.3951L18.039 54.1022L18.039 51.688L17.039 51.688ZM17.039 42.688L18.039 42.688L18.039 41.688L17.039 41.688L17.039 42.688ZM8.03902 42.688L8.03902 41.688L5.62481 41.688L7.33192 43.3951L8.03902 42.688ZM11.4783 46.1273L12.1854 46.8344L12.8925 46.1273L12.1854 45.4202L11.4783 46.1273ZM10.5138 51.3345L8.3925 49.2132L6.97829 50.6274L9.09961 52.7487L10.5138 51.3345ZM12.8925 47.5415L9.09961 51.3345L10.5138 52.7487L14.3068 48.9558L12.8925 47.5415ZM12.8925 48.9558L16.3319 52.3951L17.7461 50.9809L14.3068 47.5415L12.8925 48.9558ZM18.039 51.688L18.039 42.688L16.039 42.688L16.039 51.688L18.039 51.688ZM17.039 41.688L8.03902 41.688L8.03902 43.688L17.039 43.688L17.039 41.688ZM7.33192 43.3951L10.7712 46.8344L12.1854 45.4202L8.74613 41.9809L7.33192 43.3951ZM8.3925 50.6274L12.1854 46.8344L10.7712 45.4202L6.97829 49.2132L8.3925 50.6274Z" fill="white" mask="url(#path-13-inside-6)"/>
<mask id="path-15-inside-7" fill="white">
<path fill-rule="evenodd" clip-rule="evenodd" d="M9.80679 7.68637L7.68547 9.80769L11.4784 13.6006L8.03902 17.04L17.039 17.04L17.039 8.04L13.5997 11.4793L9.80679 7.68637Z"/>
</mask>
<path d="M7.68547 9.80769L6.97836 9.10059L6.27126 9.80769L6.97836 10.5148L7.68547 9.80769ZM9.80679 7.68637L10.5139 6.97927L9.80679 6.27216L9.09968 6.97927L9.80679 7.68637ZM11.4784 13.6006L12.1855 14.3077L12.8926 13.6006L12.1855 12.8935L11.4784 13.6006ZM8.03902 17.04L7.33192 16.3329L5.62481 18.04H8.03902L8.03902 17.04ZM17.039 17.04V18.04H18.039V17.04H17.039ZM17.039 8.04H18.039V5.62579L16.3319 7.33289L17.039 8.04ZM13.5997 11.4793L12.8926 12.1864L13.5997 12.8935L14.3068 12.1864L13.5997 11.4793ZM8.39258 10.5148L10.5139 8.39348L9.09968 6.97927L6.97836 9.10059L8.39258 10.5148ZM12.1855 12.8935L8.39258 9.10059L6.97836 10.5148L10.7713 14.3077L12.1855 12.8935ZM10.7713 12.8935L7.33192 16.3329L8.74613 17.7471L12.1855 14.3077L10.7713 12.8935ZM8.03902 18.04L17.039 18.04V16.04L8.03902 16.04L8.03902 18.04ZM18.039 17.04L18.039 8.04H16.039L16.039 17.04H18.039ZM16.3319 7.33289L12.8926 10.7722L14.3068 12.1864L17.7461 8.74711L16.3319 7.33289ZM9.09968 8.39348L12.8926 12.1864L14.3068 10.7722L10.5139 6.97927L9.09968 8.39348Z" fill="white" mask="url(#path-15-inside-7)"/>
<mask id="path-17-inside-8" fill="white">
<path fill-rule="evenodd" clip-rule="evenodd" d="M49.9198 52.0417L52.0411 49.9203L48.2482 46.1274L51.6875 42.688L42.6875 42.688L42.6875 51.688L46.1268 48.2487L49.9198 52.0417Z"/>
</mask>
<path d="M52.0411 49.9203L52.7482 50.6274L53.4553 49.9203L52.7482 49.2132L52.0411 49.9203ZM49.9198 52.0417L49.2127 52.7488L49.9198 53.4559L50.6269 52.7488L49.9198 52.0417ZM48.2482 46.1274L47.5411 45.4203L46.8339 46.1274L47.5411 46.8345L48.2482 46.1274ZM51.6875 42.688L52.3946 43.3951L54.1018 41.688L51.6875 41.688L51.6875 42.688ZM42.6875 42.688L42.6875 41.688L41.6875 41.688L41.6875 42.688L42.6875 42.688ZM42.6875 51.688L41.6875 51.688L41.6875 54.1022L43.3946 52.3951L42.6875 51.688ZM46.1268 48.2487L46.8339 47.5416L46.1268 46.8345L45.4197 47.5416L46.1268 48.2487ZM51.334 49.2132L49.2127 51.3345L50.6269 52.7488L52.7482 50.6274L51.334 49.2132ZM47.5411 46.8345L51.334 50.6274L52.7482 49.2132L48.9553 45.4203L47.5411 46.8345ZM48.9553 46.8345L52.3946 43.3951L50.9804 41.9809L47.5411 45.4203L48.9553 46.8345ZM51.6875 41.688L42.6875 41.688L42.6875 43.688L51.6875 43.688L51.6875 41.688ZM41.6875 42.688L41.6875 51.688L43.6875 51.688L43.6875 42.688L41.6875 42.688ZM43.3946 52.3951L46.8339 48.9558L45.4197 47.5416L41.9804 50.9809L43.3946 52.3951ZM50.6269 51.3345L46.8339 47.5416L45.4197 48.9558L49.2127 52.7488L50.6269 51.3345Z" fill="white" mask="url(#path-17-inside-8)"/>
</svg>
