<svg width="60" height="60" viewBox="0 0 60 60" fill="none" xmlns="http://www.w3.org/2000/svg">
<path fill-rule="evenodd" clip-rule="evenodd" d="M15 6.5C15 5.67614 15.6761 5 16.5 5H53.5C54.3239 5 55 5.67614 55 6.5V50C55 52.7298 52.8179 55 50 55H12.4021C13.9731 53.9437 15 52.1495 15 50.1V6.5ZM50 56H9.10001H9H8.89999C5.62385 56 3 53.3761 3 50.1V16.5C3 15.1239 4.12386 14 5.5 14H14V6.5C14 5.12386 15.1239 4 16.5 4H53.5C54.8761 4 56 5.12386 56 6.5V50C56 53.2702 53.3821 56 50 56ZM9.10001 55H9H8.89999C6.17614 55 4 52.8239 4 50.1V16.5C4 15.6761 4.67614 15 5.5 15H14V50.1C14 52.8239 11.8239 55 9.10001 55ZM47 25V13H37V25H47ZM35 11H49V27H35V11ZM30 21H21V17H30V21ZM21 15H30V11H21V15ZM21 33V32H49V33H21ZM21 27H30V26H21V27ZM21 39V38H49V39H21ZM21 44V45H49V44H21Z" fill="white"/>
</svg>
