<svg width="186" height="31" viewBox="0 0 186 31" fill="none" xmlns="http://www.w3.org/2000/svg">
<path d="M86.7285 30.223H102.436L104.086 26.4283H90.9132V1.2373H86.7285V30.223Z" fill="white"/>
<path d="M17.6523 0.85791C12.4362 0.85791 8.19254 2.25903 4.92142 5.03208C1.65029 7.80512 0 11.3663 0 15.774C0 20.0649 1.65029 23.6261 4.92142 26.3991C8.19254 29.1722 12.3772 30.5733 17.4754 30.5733C19.8035 30.5733 22.1316 30.223 24.4892 29.4933C26.8468 28.7635 28.6149 27.8294 29.7642 26.691V14.8399H18.2417V20.1525H22.4853V23.5385C20.8644 24.2391 19.2436 24.5894 17.6523 24.5894C14.6169 24.5894 12.1709 23.8012 10.3143 22.225C8.45776 20.6487 7.51474 18.5762 7.51474 16.0367C7.51474 13.3804 8.45776 11.1912 10.3143 9.46895C12.1709 7.74674 14.8232 6.90024 18.2417 6.90024C21.8075 6.90024 25.4617 7.80512 29.1749 9.58571V3.25149C25.7859 1.64604 21.9253 0.85791 17.6523 0.85791Z" fill="white"/>
<path d="M55.5508 0.85791V6.17049H66.1598V29.8436H73.4388V6.17049H84.0478V0.85791H55.5508Z" fill="white"/>
<path d="M115.431 17.9338L119.822 7.42543L124.538 17.9338H115.431ZM105.795 30.2228H110.097L113.752 21.6409H126.247L130.137 30.2228H134.41L121.325 1.06201H118.378L105.795 30.2228Z" fill="white"/>
<path d="M159.312 21.2032L151.148 1.2373H147.2L139.095 21.2032L131.021 1.2373H126.807L138.594 30.3397H139.479L149.145 6.7834L158.722 30.3397H159.636L171.482 1.2373H167.298L159.312 21.2032Z" fill="white"/>
<path d="M39.2232 23.9764V17.5546H52.5729V12.242H39.2232V6.37482H53.2212V0.85791H32.7988V29.8436H53.5159V23.9764H39.2232Z" fill="white"/>
<path d="M180.619 4.44801C180.795 4.50639 180.913 4.59396 181.031 4.73991C181.12 4.88586 181.179 5.03181 181.179 5.20695C181.179 5.38209 181.149 5.55723 181.061 5.67399C180.972 5.81994 180.854 5.90751 180.707 5.99508C180.56 6.05346 180.265 6.11184 179.852 6.11184H179.558V4.36044H179.793C180.147 4.36044 180.442 4.38963 180.619 4.44801ZM179.528 9.26436V6.84159H179.735C180 6.84159 180.177 6.87078 180.294 6.92916C180.412 6.98754 180.53 7.07511 180.678 7.22106C180.825 7.36701 180.972 7.54215 181.149 7.77567L181.414 8.21352L181.65 8.62218L181.797 8.8557C181.827 8.88489 181.827 8.91408 181.856 8.91408L182.092 9.29355H183.065L182.77 8.88489C182.652 8.73894 182.505 8.47623 182.298 8.15514C181.974 7.65891 181.738 7.30863 181.562 7.1043C181.385 6.89997 181.208 6.75402 181.031 6.63726C181.326 6.5205 181.562 6.34536 181.738 6.11184C181.915 5.87832 181.974 5.58642 181.974 5.26533C181.974 4.79829 181.797 4.41882 181.473 4.12692C181.149 3.83502 180.678 3.71826 180.118 3.71826H178.703V9.32274H179.528V9.26436Z" fill="white"/>
<path d="M180.265 2.4049C182.711 2.4049 184.686 4.36063 184.686 6.7834C184.686 9.20617 182.711 11.1619 180.265 11.1619C177.819 11.1619 175.845 9.20617 175.845 6.7834C175.845 4.36063 177.849 2.4049 180.265 2.4049ZM180.265 1.2373C177.171 1.2373 174.666 3.71845 174.666 6.7834C174.666 9.84835 177.171 12.3295 180.265 12.3295C183.36 12.3295 185.864 9.84835 185.864 6.7834C185.864 3.71845 183.389 1.2373 180.265 1.2373Z" fill="white"/>
</svg>
