<svg width="186" height="30" viewBox="0 0 186 30" fill="none" xmlns="http://www.w3.org/2000/svg">
<path d="M86.7285 29.6466H102.436L104.086 25.8155H90.9132V0.383301H86.7285V29.6466Z" fill="#D78021"/>
<path d="M17.6523 0C12.4361 0 8.19253 1.41454 4.92141 4.21415C1.65029 7.01375 0 10.609 0 15.0589C0 19.391 1.65029 22.9862 4.92141 25.7859C8.19253 28.5855 12.3772 30 17.4754 30C19.8035 30 22.1316 29.6464 24.4892 28.9096C26.8468 28.1729 28.6149 27.2299 29.7642 26.0805V14.1159H18.2416V19.4794H22.4853V22.8978C20.8644 23.6051 19.2436 23.9587 17.6523 23.9587C14.6169 23.9587 12.1709 23.1631 10.3143 21.5717C8.45776 19.9804 7.51473 17.888 7.51473 15.3242C7.51473 12.6424 8.45776 10.4322 10.3143 8.69352C12.1709 6.95481 14.8232 6.1002 18.2416 6.1002C21.8075 6.1002 25.4617 7.01375 29.1749 8.81139V2.4165C25.7859 0.795678 21.9253 0 17.6523 0Z" fill="white"/>
<path d="M55.5508 0V5.36346H66.1598V29.2633H73.4388V5.36346H84.0478V0H55.5508Z" fill="white"/>
<path d="M115.431 17.2395L119.822 6.63042L124.538 17.2395H115.431ZM105.795 29.6461H110.097L113.752 20.9821H126.247L130.137 29.6461H134.41L121.325 0.206055H118.378L105.795 29.6461Z" fill="#D78021"/>
<path d="M159.312 20.5405L151.148 0.383301H147.2L139.095 20.5405L131.021 0.383301H126.807L138.594 29.7644H139.479L149.145 5.98251L158.722 29.7644H159.636L171.482 0.383301H167.298L159.312 20.5405Z" fill="#D78021"/>
<path d="M39.2232 23.3399V16.8566H52.5729V11.4931H39.2232V5.56975H53.2212V0H32.7988V29.2633H53.5159V23.3399H39.2232Z" fill="white"/>
<path d="M180.619 3.62492C180.795 3.68386 180.913 3.77227 181.031 3.91962C181.12 4.06697 181.179 4.21431 181.179 4.39113C181.179 4.56795 181.149 4.74477 181.061 4.86264C180.972 5.00999 180.854 5.0984 180.707 5.18681C180.56 5.24575 180.265 5.30469 179.852 5.30469H179.558V3.53651H179.793C180.147 3.53651 180.442 3.56598 180.619 3.62492ZM179.528 8.4874V6.04143H179.735C180 6.04143 180.177 6.07089 180.294 6.12983C180.412 6.18877 180.53 6.27718 180.678 6.42453C180.825 6.57188 180.972 6.74869 181.149 6.98445L181.414 7.42649L181.65 7.83907L181.797 8.07482C181.827 8.10429 181.827 8.13376 181.856 8.13376L182.092 8.51687H183.065L182.77 8.10429C182.652 7.95695 182.505 7.69172 182.298 7.36756C181.974 6.86657 181.738 6.51294 181.562 6.30665C181.385 6.10036 181.208 5.95302 181.031 5.83514C181.326 5.71726 181.562 5.54044 181.738 5.30469C181.915 5.06893 181.974 4.77423 181.974 4.45007C181.974 3.97856 181.797 3.59545 181.473 3.30076C181.149 3.00606 180.678 2.88818 180.118 2.88818H178.703V8.54634H179.528V8.4874Z" fill="#D78021"/>
<path d="M180.265 1.56208C182.711 1.56208 184.686 3.53654 184.686 5.98251C184.686 8.42849 182.711 10.4029 180.265 10.4029C177.819 10.4029 175.845 8.42849 175.845 5.98251C175.845 3.53654 177.849 1.56208 180.265 1.56208ZM180.265 0.383301C177.171 0.383301 174.666 2.88821 174.666 5.98251C174.666 9.07682 177.171 11.5817 180.265 11.5817C183.36 11.5817 185.864 9.07682 185.864 5.98251C185.864 2.88821 183.389 0.383301 180.265 0.383301Z" fill="#D78021"/>
</svg>
