<svg width="28" height="28" viewBox="0 0 28 28" fill="none" xmlns="http://www.w3.org/2000/svg">
<rect x="2" y="13" width="24" height="13" fill="white"/>
<path d="M15.8082 20.939C15.4843 20.6084 15.3224 20.1921 15.3224 19.6901C15.3224 19.188 15.4843 18.7717 15.8082 18.4534C16.1445 18.1228 16.5556 17.9636 17.0538 17.9636C17.5521 17.9636 17.9631 18.1228 18.287 18.4534C18.6109 18.7717 18.7728 19.188 18.7728 19.6901C18.7728 20.1921 18.6109 20.6084 18.287 20.939C17.9631 21.2573 17.5521 21.4165 17.0538 21.4165C16.5556 21.4165 16.1445 21.2573 15.8082 20.939Z" fill="#EA3410"/>
<path d="M7.86135 19.6901C7.86135 20.1921 8.02328 20.6084 8.34714 20.939C8.67101 21.2573 9.08207 21.4165 9.58032 21.4165C10.0786 21.4165 10.4896 21.2573 10.8135 20.939C11.1498 20.6084 11.3118 20.1921 11.3118 19.6901C11.3118 19.188 11.1498 18.7717 10.8135 18.4534C10.4896 18.1228 10.0786 17.9636 9.58032 17.9636C9.08207 17.9636 8.67101 18.1228 8.34714 18.4534C8.02328 18.7717 7.86135 19.188 7.86135 19.6901Z" fill="#EA3410"/>
<path fill-rule="evenodd" clip-rule="evenodd" d="M21 0H14H0V28H28V14V7L21 0ZM22.2727 16.5678C22.2727 14.8413 23.2568 13.8985 25.2 14.0087V15.527C24.3156 15.4658 23.8796 15.8086 23.8796 16.5678V16.629H25.2V18.1473H23.8796V22.7511H22.2727V18.1473H21.3759V16.629H22.2727V16.5678ZM18.7728 17.3514C18.2995 16.7514 17.6268 16.4576 16.7549 16.4576C15.9203 16.4576 15.1978 16.7759 14.5999 17.4004C14.0145 18.0248 13.7155 18.784 13.7155 19.6901C13.7155 20.5961 14.0145 21.3675 14.5999 21.992C15.1978 22.6164 15.9203 22.9226 16.7549 22.9226C17.6268 22.9226 18.2995 22.6287 18.7728 22.0287V22.7511H20.3797V14.1801H18.7728V17.3514ZM7.86135 17.3514C8.33469 16.7514 9.00733 16.4576 9.87927 16.4576C10.7138 16.4576 11.4363 16.7759 12.0218 17.4004C12.6197 18.0248 12.9186 18.784 12.9186 19.6901C12.9186 20.5961 12.6197 21.3675 12.0218 21.992C11.4363 22.6164 10.7138 22.9226 9.87927 22.9226C9.00733 22.9226 8.33469 22.6287 7.86135 22.0287V25.2H6.25448V16.629H7.86135V17.3514ZM4.60304 21.1349C5.0141 21.5389 5.0141 22.2001 4.60304 22.6042C4.19198 23.0083 3.51934 23.0083 3.10828 22.6042C2.69722 22.2001 2.69722 21.5389 3.10828 21.1349C3.51934 20.7308 4.19198 20.7308 4.60304 21.1349Z" fill="#EA3410"/>
<path d="M21 7L21 0L28 7L21 7Z" fill="white"/>
</svg>
