<svg width="56" height="43" viewBox="0 0 56 43" fill="none" xmlns="http://www.w3.org/2000/svg">
<path fill-rule="evenodd" clip-rule="evenodd" d="M28.254 6.49478C31.9545 6.49478 34.814 8.39408 34.814 13.7467C34.814 19.2719 33.8047 26.0058 28.254 26.0058C22.535 26.0058 21.5257 19.2719 21.5257 13.7467C21.5257 8.39408 24.5534 6.49478 28.254 6.49478ZM12.4426 30.3224L23.8806 26.0058L22.0303 28.0777L25.058 39.6462V41.0275H10.9288L12.4426 30.3224ZM43.8971 30.3224L32.4591 26.0058L34.3093 28.0777L31.4499 39.6462V41.0275H45.5791L43.8971 30.3224ZM29.2632 33.085L30.1042 30.3224L28.254 29.2864L26.2355 30.3224L27.0765 33.085L26.9083 41.0275H28.254H29.4314L29.2632 33.085Z" fill="#D78021"/>
<path d="M12.2661 29.8546L11.989 29.9591L11.9476 30.2524L10.4337 40.9575L10.3531 41.5275H10.9288H25.058H25.558V41.0275V39.6462V39.5819L25.5418 39.5196L22.582 28.2107L24.2536 26.3388L23.7041 25.538L12.2661 29.8546ZM44.391 30.2448L44.3458 29.9573L44.0736 29.8546L32.6356 25.538L32.0861 26.3388L33.7606 28.2139L30.9645 39.5262L30.9499 39.5853V39.6462V41.0275V41.5275H31.4499H45.5791H46.1638L46.073 40.9499L44.391 30.2448ZM30.5825 30.468L30.6998 30.0828L30.3485 29.8861L28.4982 28.8501L28.2642 28.7191L28.0256 28.8416L26.0072 29.8775L25.6355 30.0683L25.7572 30.468L26.5749 33.1542L26.4084 41.0169L26.3976 41.5275H26.9083H28.254H29.4314H29.9421L29.9313 41.0169L29.7648 33.1542L30.5825 30.468ZM35.314 13.7467C35.314 10.9843 34.5747 9.02236 33.2701 7.75488C31.9685 6.49036 30.1838 5.99478 28.254 5.99478C26.3246 5.99478 24.5022 6.48993 23.1601 7.74883C21.8117 9.01364 21.0257 10.9762 21.0257 13.7467C21.0257 16.5238 21.277 19.6693 22.2822 22.1368C22.7871 23.3762 23.4928 24.4715 24.478 25.258C25.4709 26.0507 26.718 26.5058 28.254 26.5058C29.7517 26.5058 30.9689 26.0483 31.9377 25.2539C32.8981 24.4665 33.5866 23.3712 34.08 22.1333C35.0626 19.6677 35.314 16.5242 35.314 13.7467Z" stroke="white" stroke-opacity="0.5"/>
</svg>
