<svg width="50" height="61" viewBox="0 0 50 61" fill="none" xmlns="http://www.w3.org/2000/svg">
<circle cx="36.0987" cy="47.2003" r="13.2999" fill="#D78021"/>
<path fill-rule="evenodd" clip-rule="evenodd" d="M0.599609 3C0.599609 1.61929 1.7189 0.5 3.09961 0.5H43.8993C45.2801 0.5 46.3993 1.61929 46.3993 3V32.6053H45.3993V3C45.3993 2.17157 44.7278 1.5 43.8993 1.5H3.09961C2.27118 1.5 1.59961 2.17157 1.59961 3V54.9997C1.59961 55.8281 2.27118 56.4997 3.09961 56.4997H21.9097V57.4997H3.09961C1.7189 57.4997 0.599609 56.3804 0.599609 54.9997V3ZM30.4998 9.90022H17.1999V8.90022H30.4998V9.90022ZM10.1998 19.7002H36.7997V18.7002H10.1998V19.7002ZM36.7997 26.7003H10.1998V25.7003H36.7997V26.7003ZM10.1998 33.7003H25.5998V32.7003H10.1998V33.7003ZM21.0279 40.7004H10.1998V39.7004H21.0279V40.7004ZM10.1998 47.7005H18.9498V46.7005H10.1998V47.7005Z" fill="#D78021"/>
<path fill-rule="evenodd" clip-rule="evenodd" d="M35.4006 40.8994H36.8006V51.0039L41.3049 46.4996L42.2949 47.4895L36.3552 53.4292L36.0474 53.1213L35.7404 53.4283L29.8008 47.4886L30.7907 46.4987L35.4006 51.1086V40.8994Z" fill="white"/>
</svg>
